<?xml version="1.0" encoding="UTF-8" standalone="no"?>
<svg
   xmlns:dc="http://purl.org/dc/elements/1.1/"
   xmlns:cc="http://creativecommons.org/ns#"
   xmlns:rdf="http://www.w3.org/1999/02/22-rdf-syntax-ns#"
   xmlns:svg="http://www.w3.org/2000/svg"
   xmlns="http://www.w3.org/2000/svg"
   xmlns:sodipodi="http://sodipodi.sourceforge.net/DTD/sodipodi-0.dtd"
   xmlns:inkscape="http://www.inkscape.org/namespaces/inkscape"
   version="1.1"
   viewBox="0.0 0.0 348.0 348.0"
   fill="none"
   stroke="none"
   stroke-linecap="square"
   stroke-miterlimit="10"
   id="svg19"
   sodipodi:docname="Component.svg"
   inkscape:version="0.92.3 (2405546, 2018-03-11)">
  <metadata
     id="metadata25">
    <rdf:RDF>
      <cc:Work
         rdf:about="">
        <dc:format>image/svg+xml</dc:format>
        <dc:type
           rdf:resource="http://purl.org/dc/dcmitype/StillImage" />
        <dc:title></dc:title>
      </cc:Work>
    </rdf:RDF>
  </metadata>
  <defs
     id="defs23" />
  <sodipodi:namedview
     pagecolor="#ffffff"
     bordercolor="#666666"
     borderopacity="1"
     objecttolerance="10"
     gridtolerance="10"
     guidetolerance="10"
     inkscape:pageopacity="0"
     inkscape:pageshadow="2"
     inkscape:window-width="2160"
     inkscape:window-height="1406"
     id="namedview21"
     showgrid="false"
     inkscape:zoom="2.7126437"
     inkscape:cx="175.26704"
     inkscape:cy="183.30003"
     inkscape:window-x="-11"
     inkscape:window-y="-11"
     inkscape:window-maximized="1"
     inkscape:current-layer="svg19" />
  <clipPath
     id="p.0">
    <path
       d="m0 0l348.0 0l0 348.0l-348.0 0l0 -348.0z"
       clip-rule="nonzero"
       id="path2" />
  </clipPath>
  <g
     clip-path="url(#p.0)"
     id="g17">
    <path
       fill="#000000"
       fill-opacity="0.0"
       d="m0 0l348.0 0l0 348.0l-348.0 0z"
       fill-rule="nonzero"
       id="path5" />
    <path
       fill="#ffffff"
       d="m-6.0 0l348.0 0l0 347.9685l-348.0 0z"
       fill-rule="nonzero"
       id="path7" />
    <path
       fill="#000000"
       fill-opacity="0.0"
       d="m5.07874 5.7758217l336.9134 0l0 337.6693l-336.9134 0z"
       fill-rule="nonzero"
       id="path9" />
    <path
       stroke="#000000"
       stroke-width="2.0"
       stroke-linejoin="round"
       stroke-linecap="butt"
       d="m5.07874 5.7758217l336.9134 0l0 337.6693l-336.9134 0z"
       fill-rule="nonzero"
       id="path11" />
    <path
       fill="#ffffff"
       d="m282.73444 40.553925l0 0c0 -8.375591 6.966034 -15.165352 15.5590515 -15.165352l0 0c4.126526 0 8.084015 1.5977726 11.001923 4.441828c2.9178772 2.844057 4.557129 6.7014217 4.557129 10.723524l0 0c0 8.375595 -6.9660034 15.165356 -15.5590515 15.165356l0 0c-8.593018 0 -15.5590515 -6.7897606 -15.5590515 -15.165356z"
       fill-rule="nonzero"
       id="path13" />
    <path
       stroke="#000000"
       stroke-width="2.0"
       stroke-linejoin="round"
       stroke-linecap="butt"
       d="m282.73444 40.553925l0 0c0 -8.375591 6.966034 -15.165352 15.5590515 -15.165352l0 0c4.126526 0 8.084015 1.5977726 11.001923 4.441828c2.9178772 2.844057 4.557129 6.7014217 4.557129 10.723524l0 0c0 8.375595 -6.9660034 15.165356 -15.5590515 15.165356l0 0c-8.593018 0 -15.5590515 -6.7897606 -15.5590515 -15.165356z"
       fill-rule="nonzero"
       id="path15" />
  </g>
  <rect
     style="fill:#ffffff;stroke:#000000;stroke-opacity:1"
     id="rect27"
     width="188.00847"
     height="23.961864"
     x="42.025425"
     y="32.072033"
     ry="2.7755599e-017" />
  <rect
     style="fill:#ffffff;stroke:#000000;stroke-opacity:1"
     id="rect29"
     width="36.127117"
     height="54.190678"
     x="19.758476"
     y="157.04237"
     ry="2.7755599e-017" />
  <rect
     ry="2.7755599e-017"
     y="157.04237"
     x="291.75848"
     height="54.190678"
     width="36.127117"
     id="rect31"
     style="fill:#ffffff;stroke:#000000;stroke-opacity:1" />
  <text
     xml:space="preserve"
     style="font-style:normal;font-weight:normal;font-size:48.11256409px;line-height:1.25;font-family:sans-serif;letter-spacing:0px;word-spacing:0px;fill:#000000;fill-opacity:1;stroke:none;stroke-width:1.20281398"
     x="43.965416"
     y="123.75915"
     id="text35"
     transform="scale(0.58662091,1.7046784)"><tspan
       sodipodi:role="line"
       id="tspan33"
       x="43.965416"
       y="123.75915"
       style="stroke-width:1.20281398">&lt;</tspan></text>
  <text
     transform="matrix(-0.58658022,-0.00690888,0.02007671,-1.7045602,0,0)"
     id="text39"
     y="-90.967216"
     x="-553.76611"
     style="font-style:normal;font-weight:normal;font-size:48.11256409px;line-height:1.25;font-family:sans-serif;letter-spacing:0px;word-spacing:0px;fill:#000000;fill-opacity:1;stroke:none;stroke-width:1.20281398"
     xml:space="preserve"><tspan
       style="stroke-width:1.20281398"
       y="-90.967216"
       x="-553.76611"
       id="tspan37"
       sodipodi:role="line">&lt;</tspan></text>
  <rect
     style="fill:#ffffff;stroke:#000000;stroke-width:0.9889639;stroke-opacity:1"
     id="rect41"
     width="193.21451"
     height="38.715931"
     x="74.056587"
     y="89.20771"
     ry="2.7761554e-017" />
  <rect
     style="fill:#ffffff;stroke:#000000;stroke-width:1.23648477;stroke-opacity:1"
     id="rect43"
     width="26.09631"
     height="26.305887"
     x="74.584343"
     y="135.04196"
     ry="3.3569458e-017" />
  <rect
     ry="3.3569458e-017"
     y="135.04196"
     x="102.3947"
     height="26.305887"
     width="26.09631"
     id="rect45"
     style="fill:#ffffff;stroke:#000000;stroke-width:1.23648477;stroke-opacity:1" />
  <rect
     ry="3.3569458e-017"
     y="135.04196"
     x="130.20505"
     height="26.305887"
     width="26.09631"
     id="rect47"
     style="fill:#ffffff;stroke:#000000;stroke-width:1.23648477;stroke-opacity:1" />
  <rect
     style="fill:#ffffff;stroke:#000000;stroke-width:1.23648477;stroke-opacity:1"
     id="rect49"
     width="26.09631"
     height="26.305887"
     x="158.0154"
     y="135.04196"
     ry="3.3569458e-017" />
  <rect
     style="fill:#ffffff;stroke:#000000;stroke-width:1.23648477;stroke-opacity:1"
     id="rect51"
     width="26.09631"
     height="26.305887"
     x="185.82574"
     y="135.04196"
     ry="3.3569458e-017" />
  <rect
     style="fill:#ffffff;stroke:#000000;stroke-width:1.23648477;stroke-opacity:1"
     id="rect53"
     width="26.09631"
     height="26.305887"
     x="213.63611"
     y="135.04196"
     ry="3.3569458e-017" />
  <rect
     ry="3.3569458e-017"
     y="135.04196"
     x="241.44646"
     height="26.305887"
     width="26.09631"
     id="rect55"
     style="fill:#ffffff;stroke:#000000;stroke-width:1.23648477;stroke-opacity:1" />
  <rect
     ry="3.3569458e-017"
     y="163.04196"
     x="74.584343"
     height="26.305887"
     width="26.09631"
     id="rect57"
     style="fill:#ffffff;stroke:#000000;stroke-width:1.23648477;stroke-opacity:1" />
  <rect
     style="fill:#ffffff;stroke:#000000;stroke-width:1.23648477;stroke-opacity:1"
     id="rect59"
     width="26.09631"
     height="26.305887"
     x="102.3947"
     y="163.04196"
     ry="3.3569458e-017" />
  <rect
     style="fill:#ffffff;stroke:#000000;stroke-width:1.23648477;stroke-opacity:1"
     id="rect61"
     width="26.09631"
     height="26.305887"
     x="130.20505"
     y="163.04196"
     ry="3.3569458e-017" />
  <rect
     ry="3.3569458e-017"
     y="163.04196"
     x="158.0154"
     height="26.305887"
     width="26.09631"
     id="rect63"
     style="fill:#ffffff;stroke:#000000;stroke-width:1.23648477;stroke-opacity:1" />
  <rect
     ry="3.3569458e-017"
     y="163.04196"
     x="185.82574"
     height="26.305887"
     width="26.09631"
     id="rect65"
     style="fill:#ffffff;stroke:#000000;stroke-width:1.23648477;stroke-opacity:1" />
  <rect
     ry="3.3569458e-017"
     y="163.04196"
     x="213.63611"
     height="26.305887"
     width="26.09631"
     id="rect67"
     style="fill:#ffffff;stroke:#000000;stroke-width:1.23648477;stroke-opacity:1" />
  <rect
     style="fill:#ffffff;stroke:#000000;stroke-width:1.23648477;stroke-opacity:1"
     id="rect69"
     width="26.09631"
     height="26.305887"
     x="241.44646"
     y="163.04196"
     ry="3.3569458e-017" />
  <rect
     style="fill:#ffffff;stroke:#000000;stroke-width:1.23648477;stroke-opacity:1"
     id="rect71"
     width="26.09631"
     height="26.305887"
     x="74.584343"
     y="191.04196"
     ry="3.3569458e-017" />
  <rect
     ry="3.3569458e-017"
     y="191.04196"
     x="102.3947"
     height="26.305887"
     width="26.09631"
     id="rect73"
     style="fill:#ffffff;stroke:#000000;stroke-width:1.23648477;stroke-opacity:1" />
  <rect
     ry="3.3569458e-017"
     y="191.04196"
     x="130.20505"
     height="26.305887"
     width="26.09631"
     id="rect75"
     style="fill:#ffffff;stroke:#000000;stroke-width:1.23648477;stroke-opacity:1" />
  <rect
     style="fill:#ffffff;stroke:#000000;stroke-width:1.23648477;stroke-opacity:1"
     id="rect77"
     width="26.09631"
     height="26.305887"
     x="158.0154"
     y="191.04196"
     ry="3.3569458e-017" />
  <rect
     style="fill:#ffffff;stroke:#000000;stroke-width:1.23648477;stroke-opacity:1"
     id="rect79"
     width="26.09631"
     height="26.305887"
     x="185.82574"
     y="191.04196"
     ry="3.3569458e-017" />
  <rect
     style="fill:#ffffff;stroke:#000000;stroke-width:1.23648477;stroke-opacity:1"
     id="rect81"
     width="26.09631"
     height="26.305887"
     x="213.63611"
     y="191.04196"
     ry="3.3569458e-017" />
  <rect
     ry="3.3569458e-017"
     y="191.04196"
     x="241.44646"
     height="26.305887"
     width="26.09631"
     id="rect83"
     style="fill:#ffffff;stroke:#000000;stroke-width:1.23648477;stroke-opacity:1" />
  <rect
     ry="3.3569458e-017"
     y="219.04196"
     x="74.584343"
     height="26.305887"
     width="26.09631"
     id="rect85"
     style="fill:#ffffff;stroke:#000000;stroke-width:1.23648477;stroke-opacity:1" />
  <rect
     style="fill:#ffffff;stroke:#000000;stroke-width:1.23648477;stroke-opacity:1"
     id="rect87"
     width="26.09631"
     height="26.305887"
     x="102.3947"
     y="219.04196"
     ry="3.3569458e-017" />
  <rect
     style="fill:#ffffff;stroke:#000000;stroke-width:1.23648477;stroke-opacity:1"
     id="rect89"
     width="26.09631"
     height="26.305887"
     x="130.20505"
     y="219.04196"
     ry="3.3569458e-017" />
  <rect
     ry="3.3569458e-017"
     y="219.04196"
     x="158.0154"
     height="26.305887"
     width="26.09631"
     id="rect91"
     style="fill:#ffffff;stroke:#000000;stroke-width:1.23648477;stroke-opacity:1" />
  <rect
     ry="3.3569458e-017"
     y="219.04196"
     x="185.82574"
     height="26.305887"
     width="26.09631"
     id="rect93"
     style="fill:#ffffff;stroke:#000000;stroke-width:1.23648477;stroke-opacity:1" />
  <rect
     ry="3.3569458e-017"
     y="219.04196"
     x="213.63611"
     height="26.305887"
     width="26.09631"
     id="rect95"
     style="fill:#ffffff;stroke:#000000;stroke-width:1.23648477;stroke-opacity:1" />
  <rect
     style="fill:#ffffff;stroke:#000000;stroke-width:1.23648477;stroke-opacity:1"
     id="rect97"
     width="26.09631"
     height="26.305887"
     x="241.44646"
     y="219.04196"
     ry="3.3569458e-017" />
  <rect
     style="fill:#ffffff;stroke:#000000;stroke-width:1.23648477;stroke-opacity:1"
     id="rect99"
     width="26.09631"
     height="26.305887"
     x="74.584343"
     y="247.04196"
     ry="3.3569458e-017" />
  <rect
     ry="3.3569458e-017"
     y="247.04196"
     x="102.3947"
     height="26.305887"
     width="26.09631"
     id="rect101"
     style="fill:#ffffff;stroke:#000000;stroke-width:1.23648477;stroke-opacity:1" />
  <rect
     ry="3.3569458e-017"
     y="247.04196"
     x="130.20505"
     height="26.305887"
     width="26.09631"
     id="rect103"
     style="fill:#ffffff;stroke:#000000;stroke-width:1.23648477;stroke-opacity:1" />
</svg>
